<?xml version="1.0" standalone="no"?>
<!DOCTYPE svg PUBLIC "-//W3C//DTD SVG 20010904//EN"
 "http://www.w3.org/TR/2001/REC-SVG-20010904/DTD/svg10.dtd">
<svg version="1.0" xmlns="http://www.w3.org/2000/svg"
 width="1497.000000pt" height="597.000000pt" viewBox="0 0 1497.000000 597.000000"
 preserveAspectRatio="xMidYMid meet">

<g transform="translate(0.000000,597.000000) scale(0.100000,-0.100000)"
fill="#000000" stroke="none">
<path d="M2013 5791 c-76 -28 -139 -75 -189 -143 -125 -171 -109 -423 37 -560
93 -87 231 -113 356 -67 155 57 215 236 115 343 l-27 28 33 -16 c58 -30 91
-105 117 -271 8 -49 17 -122 21 -161 l6 -71 -46 -6 c-113 -16 -184 -72 -172
-135 4 -23 -1 -32 -37 -57 -23 -17 -62 -56 -86 -86 l-44 -55 -59 10 c-54 9
-60 8 -81 -12 -21 -22 -22 -31 -25 -235 -3 -204 -2 -214 18 -240 24 -30 53
-34 123 -16 l42 12 58 -59 58 -59 -3 -110 c-3 -103 -6 -114 -38 -175 -46 -85
-170 -209 -282 -280 -85 -54 -110 -82 -90 -102 16 -16 166 -26 260 -17 124 11
256 56 382 130 200 117 322 157 590 196 46 7 56 12 58 30 2 16 -5 26 -25 37
-38 19 -113 100 -145 156 -29 49 -56 135 -59 190 -2 24 9 59 34 110 98 200 48
436 -121 567 -46 36 -49 40 -44 76 7 59 -36 96 -139 118 l-52 11 6 57 c8 75
43 187 73 233 22 35 80 76 91 65 2 -3 -4 -10 -15 -16 -53 -29 -69 -155 -29
-232 67 -127 263 -177 411 -105 71 35 148 119 177 194 32 79 33 243 3 318 -30
73 -78 139 -135 184 -169 133 -429 98 -560 -76 l-34 -45 -11 45 c-26 99 -87
190 -168 245 -99 68 -247 90 -353 52z m259 -69 c63 -28 141 -103 173 -165 35
-72 31 -88 -10 -39 -20 22 -61 53 -93 69 -51 25 -68 28 -157 28 -83 0 -107 -4
-140 -22 -87 -47 -120 -107 -120 -224 0 -77 3 -90 28 -128 33 -49 99 -84 150
-79 27 2 32 7 32 28 0 21 -6 26 -37 31 -75 12 -118 65 -118 147 0 129 89 201
233 190 102 -8 171 -55 216 -145 27 -54 27 -63 -1 -28 -25 32 -91 64 -131 65
-15 0 -41 -7 -57 -15 -23 -12 -30 -22 -30 -46 0 -25 6 -33 34 -44 129 -54 83
-232 -70 -275 -59 -17 -159 -8 -210 18 -51 26 -109 90 -137 150 -17 38 -21 67
-21 147 -1 88 2 107 25 156 45 97 120 165 212 195 58 19 170 12 229 -14z m777
-167 c69 -38 134 -111 163 -183 33 -85 32 -217 -3 -292 -35 -74 -67 -110 -128
-144 -125 -68 -303 -26 -347 81 -33 79 -13 134 64 175 23 12 32 24 32 42 0 73
-143 74 -215 2 -32 -32 -32 -19 -1 43 56 109 119 151 229 151 37 0 82 -6 100
-14 71 -29 115 -118 102 -205 -9 -59 -54 -106 -113 -116 -35 -6 -42 -10 -42
-30 0 -31 27 -39 80 -25 112 30 165 152 125 288 -33 109 -114 164 -245 164
-71 0 -89 -3 -145 -31 -45 -23 -76 -47 -101 -79 -44 -57 -38 -23 8 50 34 55
73 90 132 120 65 33 86 38 171 35 66 -3 89 -8 134 -32z m-432 -760 c49 -15 82
-39 69 -52 -3 -3 -24 -1 -47 6 -73 22 -169 25 -238 7 -70 -18 -98 -9 -58 17
58 38 186 48 274 22z m-35 -96 c121 -25 234 -115 286 -227 24 -50 27 -69 27
-162 0 -97 -2 -110 -31 -170 -39 -83 -106 -150 -192 -192 -62 -31 -74 -33
-167 -33 -91 0 -106 3 -166 31 -62 30 -149 100 -149 120 0 6 87 34 193 63 143
40 206 53 249 52 52 -2 60 1 94 31 65 60 56 162 -19 209 -26 16 -43 19 -87 15
-42 -4 -100 4 -245 36 -104 22 -194 44 -199 49 -14 12 88 112 141 139 95 48
170 59 265 39z m-302 -269 l235 -52 0 -74 0 -74 -50 -14 c-301 -86 -457 -126
-465 -121 -11 7 -14 377 -3 389 4 4 17 5 28 2 11 -2 126 -28 255 -56z m404
-71 c50 -40 21 -119 -44 -119 -62 0 -92 71 -48 117 27 29 57 29 92 2z m191
-573 c15 -30 47 -76 70 -103 l43 -49 -91 -18 c-133 -25 -258 -69 -372 -131
-266 -145 -321 -164 -485 -172 l-105 -5 68 52 c141 107 242 230 272 334 8 27
15 83 15 123 0 40 3 73 6 73 3 0 37 -10 76 -21 132 -40 298 -13 400 65 l43 34
16 -65 c10 -35 29 -88 44 -117z"/>
<path d="M2071 4406 c-8 -9 -11 -51 -9 -122 3 -109 3 -109 28 -109 l25 0 3
114 c2 85 -1 117 -10 123 -18 11 -24 10 -37 -6z"/>
<path d="M2211 4376 c-7 -9 -11 -41 -9 -82 2 -52 7 -69 21 -78 28 -17 47 17
47 82 0 79 -28 116 -59 78z"/>
<path d="M2340 4295 c0 -56 0 -56 28 -53 25 3 27 6 27 53 0 47 -2 50 -27 53
-28 3 -28 3 -28 -53z"/>
<path d="M7882 3660 c-92 -13 -166 -36 -262 -82 -70 -34 -100 -57 -175 -132
-148 -149 -209 -295 -209 -501 0 -126 17 -203 68 -310 91 -193 252 -324 471
-386 112 -32 297 -32 408 -1 153 43 296 133 382 240 56 70 119 195 142 282 24
88 23 271 -1 360 -67 250 -265 445 -518 509 -91 23 -223 32 -306 21z m240
-368 c183 -81 265 -321 178 -519 -27 -61 -104 -138 -169 -170 -49 -24 -68 -28
-146 -28 -77 0 -98 4 -147 27 -73 34 -137 98 -174 174 -27 55 -29 67 -29 174
0 106 2 119 28 170 47 91 121 157 210 186 61 20 190 13 249 -14z"/>
<path d="M6245 3646 c-159 -38 -261 -93 -363 -196 -79 -79 -125 -152 -165
-263 -26 -71 -30 -100 -34 -217 -6 -156 7 -229 61 -343 84 -181 223 -304 421
-374 74 -26 91 -27 235 -27 141 0 162 2 235 27 44 14 109 43 144 64 78 47 211
177 211 207 0 17 -30 43 -122 107 -68 47 -129 89 -136 93 -8 5 -33 -12 -70
-45 -87 -80 -147 -104 -257 -104 -78 0 -97 4 -140 27 -154 81 -228 267 -180
453 69 262 359 344 564 159 27 -24 55 -44 63 -44 17 0 246 177 262 202 8 13 4
25 -20 55 -72 89 -208 175 -332 209 -80 22 -300 28 -377 10z"/>
<path d="M13106 3644 c-9 -23 -7 -257 2 -271 4 -7 35 -13 68 -15 l61 -3 -218
-520 c-125 -296 -218 -531 -216 -545 l2 -25 190 0 190 0 47 119 c26 66 53 123
60 128 7 4 126 8 264 8 204 0 254 -3 263 -14 7 -8 32 -63 55 -123 l44 -108
195 -3 c162 -2 196 0 200 12 3 8 -31 101 -77 208 -45 106 -176 412 -290 681
l-208 487 -313 0 c-276 0 -314 -2 -319 -16z m594 -821 c0 -10 -35 -13 -150
-13 -82 0 -150 2 -150 4 0 4 82 214 142 366 9 22 18 5 84 -160 41 -101 74
-190 74 -197z"/>
<path d="M1134 3634 c-67 -33 -64 4 -64 -782 0 -749 0 -743 44 -726 15 6 16
69 16 708 0 619 2 704 16 724 l15 22 419 0 c404 0 420 1 430 19 7 15 6 23 -6
35 -23 23 -823 24 -870 0z"/>
<path d="M3259 3634 c-9 -11 -10 -20 -2 -32 9 -15 43 -18 287 -22 231 -4 278
-7 286 -20 6 -9 10 -292 10 -716 0 -741 0 -735 44 -718 15 6 16 70 16 725 0
661 -1 722 -17 746 -32 49 -60 53 -346 53 -229 0 -266 -2 -278 -16z"/>
<path d="M10202 3638 c-8 -8 -12 -54 -12 -143 0 -89 4 -135 12 -143 7 -7 41
-12 84 -12 48 0 75 -4 83 -13 7 -10 12 -171 13 -538 l3 -524 185 0 185 0 3
679 c1 493 -1 683 -9 692 -16 19 -529 20 -547 2z"/>
<path d="M11092 3642 c-10 -7 -12 -152 -10 -693 l3 -684 183 -3 c100 -1 183
-1 184 0 1 2 5 178 8 392 l5 390 170 -262 c94 -143 174 -260 180 -258 5 1 86
121 180 265 l170 262 3 -382 c1 -262 6 -386 13 -396 15 -18 349 -19 367 -1 9
9 12 155 11 603 -1 324 -4 631 -8 680 l-6 90 -197 3 -198 2 -43 -67 c-24 -38
-99 -159 -167 -271 l-123 -203 -33 53 c-18 29 -93 150 -166 268 l-133 215
-190 2 c-105 2 -196 -1 -203 -5z"/>
<path d="M8977 3634 c-4 -4 -7 -312 -7 -684 0 -512 3 -679 12 -688 18 -18
1007 -17 1031 1 16 11 17 30 15 167 l-3 155 -332 3 c-183 1 -334 3 -335 5 -1
1 -4 236 -7 522 l-6 520 -181 3 c-99 1 -183 -1 -187 -4z"/>
<path d="M726 3604 c-3 -9 -6 -63 -6 -120 l0 -105 -45 27 c-32 18 -61 27 -98
28 -51 1 -52 0 -55 -29 -5 -41 15 -103 45 -144 27 -35 92 -70 131 -71 21 0 22
-3 22 -89 l0 -90 -57 30 c-42 22 -68 29 -97 27 -37 -3 -41 -6 -44 -32 -6 -49
19 -116 58 -157 20 -22 43 -39 51 -39 8 0 29 21 48 45 33 45 67 63 96 51 12
-4 15 3 15 33 0 37 1 39 40 44 91 12 161 93 164 190 1 51 0 52 -29 55 -40 5
-103 -15 -142 -44 l-33 -25 0 90 0 91 27 0 c15 0 47 10 71 21 99 49 153 229
68 229 -36 0 -92 -19 -130 -45 -33 -23 -36 -23 -36 -6 0 34 -12 51 -35 51 -13
0 -26 -7 -29 -16z m199 -76 c-10 -33 -53 -75 -87 -87 -27 -10 -29 -9 -22 12
12 38 34 64 67 81 43 21 50 20 42 -6z m5 -343 c0 -35 -68 -105 -101 -105 -17
0 -18 3 -6 33 7 17 28 42 47 55 31 21 60 29 60 17z"/>
<path d="M3981 3602 c-11 -21 1 -88 24 -132 22 -42 81 -88 122 -95 65 -11 63
-8 63 -100 0 -47 -3 -85 -6 -85 -3 0 -19 11 -35 25 -52 43 -151 60 -168 27
-13 -24 5 -103 32 -143 31 -45 67 -70 124 -84 43 -11 48 -15 51 -44 3 -27 7
-31 32 -31 22 0 39 -12 74 -52 l46 -52 27 20 c41 31 70 78 82 136 13 60 4 78
-43 78 -39 -1 -102 -23 -125 -44 -10 -9 -21 -16 -25 -16 -4 0 -5 39 -4 86 l3
87 48 12 c76 19 135 88 151 178 9 46 -5 67 -43 67 -37 0 -117 -28 -132 -46 -6
-8 -15 -14 -20 -14 -5 0 -10 53 -11 118 l-3 117 -25 0 c-21 0 -26 -5 -28 -32
-4 -38 -12 -41 -36 -14 -21 23 -97 51 -137 51 -17 0 -32 -7 -38 -18z m116 -72
c29 -18 63 -65 63 -89 0 -16 -54 7 -78 32 -11 12 -25 34 -31 50 -13 33 0 36
46 7z m-9 -354 c36 -19 59 -45 67 -78 7 -27 7 -28 -24 -17 -31 11 -71 55 -84
92 -8 21 5 22 41 3z"/>
<path d="M2559 3344 c-9 -11 -10 -20 -2 -32 9 -15 56 -17 511 -20 493 -2 502
-3 512 -23 8 -14 10 -263 7 -847 -3 -804 -4 -829 -25 -915 -41 -170 -118 -324
-231 -465 -48 -60 -55 -84 -26 -95 20 -8 49 18 112 101 73 96 143 231 177 340
56 177 56 186 56 1073 0 590 -3 825 -11 843 -26 55 -33 56 -572 56 -439 0
-496 -2 -508 -16z"/>
<path d="M1413 3343 c-12 -2 -34 -18 -48 -34 l-25 -31 0 -822 c0 -877 1 -901
50 -1066 55 -185 242 -474 294 -454 29 11 17 43 -44 119 -103 130 -170 271
-212 444 -21 83 -22 114 -25 913 -3 586 -1 833 7 848 10 18 20 20 130 20 108
0 120 2 130 19 7 15 6 23 -6 35 -12 13 -37 16 -122 15 -59 -1 -117 -4 -129 -6z"/>
<path d="M2546 3105 c-42 -22 -55 -44 -56 -93 -1 -119 162 -142 200 -28 16 49
-8 102 -54 121 -44 19 -54 19 -90 0z"/>
<path d="M2016 2972 c-94 -24 -165 -90 -200 -185 -9 -23 -25 -68 -37 -100 -12
-32 -43 -88 -71 -124 -50 -67 -57 -95 -24 -101 39 -8 124 108 162 222 37 109
80 176 134 206 43 24 54 25 248 30 183 4 205 7 217 23 28 39 13 42 -186 42
-125 0 -209 -4 -243 -13z"/>
<path d="M708 2878 c-13 -18 -27 -38 -31 -44 -4 -6 7 -32 24 -58 41 -61 65
-61 102 -1 31 49 30 65 -8 108 -32 36 -57 34 -87 -5z"/>
<path d="M4170 2869 c-25 -35 -28 -45 -18 -63 24 -47 50 -76 68 -76 19 0 80
74 80 97 0 21 -61 83 -81 83 -11 0 -32 -18 -49 -41z"/>
<path d="M2456 2867 c-14 -18 -45 -45 -70 -61 -32 -20 -46 -36 -46 -51 0 -54
62 -34 142 46 50 50 57 66 36 87 -19 19 -35 14 -62 -21z"/>
<path d="M2115 2881 c-11 -5 -29 -19 -40 -31 -11 -12 -40 -31 -65 -42 -63 -27
-80 -45 -80 -85 0 -39 27 -70 67 -78 16 -3 44 -11 64 -17 30 -8 42 -7 77 11
23 12 42 25 43 29 1 4 2 21 4 39 1 17 12 44 24 59 28 35 27 69 -4 99 -24 25
-54 30 -90 16z"/>
<path d="M2798 2821 c-47 -10 -64 -24 -78 -65 -20 -63 22 -116 91 -116 31 0
47 9 94 51 72 67 81 83 60 115 -14 21 -22 24 -73 23 -31 -1 -74 -5 -94 -8z"/>
<path d="M582 2783 c-24 -8 -46 -21 -49 -29 -3 -8 7 -34 21 -59 29 -49 42 -53
107 -34 50 15 56 42 22 89 -43 56 -40 55 -101 33z"/>
<path d="M830 2755 c-37 -54 -31 -76 28 -93 59 -18 67 -15 96 28 36 54 33 68
-16 90 -62 28 -73 25 -108 -25z"/>
<path d="M4038 2783 c-47 -19 -53 -37 -28 -78 34 -54 43 -59 99 -45 66 16 75
45 31 101 -34 42 -46 45 -102 22z"/>
<path d="M4297 2759 c-44 -54 -36 -81 29 -99 53 -15 68 -10 94 32 34 56 18 83
-61 103 -22 5 -32 0 -62 -36z"/>
<path d="M2515 2728 c-15 -22 -14 -24 12 -35 40 -17 149 -17 156 1 11 27 -17
44 -85 50 -62 6 -68 5 -83 -16z"/>
<path d="M2253 2695 c-9 -25 165 -515 195 -547 48 -52 104 -55 216 -12 10 4
26 -18 55 -72 22 -43 39 -79 38 -80 -1 0 -51 -30 -112 -65 -95 -55 -118 -63
-170 -67 -49 -3 -68 1 -104 20 -25 13 -53 35 -63 49 -10 14 -77 160 -149 324
-71 165 -137 306 -146 312 -19 14 -43 1 -43 -24 0 -8 60 -152 132 -321 119
-274 138 -312 179 -354 80 -80 199 -99 301 -47 109 55 230 133 240 154 9 20 2
39 -43 125 -65 124 -76 131 -157 101 -33 -11 -68 -21 -79 -21 -44 0 -62 33
-144 270 -44 129 -85 243 -90 253 -12 21 -48 22 -56 2z"/>
<path d="M732 2678 c2 -15 10 -23 23 -23 13 0 21 8 23 23 3 18 -1 22 -23 22
-22 0 -26 -4 -23 -22z"/>
<path d="M4194 2685 c-8 -19 3 -35 26 -35 19 0 34 25 24 41 -8 14 -44 10 -50
-6z"/>
<path d="M2376 2664 c-17 -44 98 -206 164 -234 63 -26 84 23 26 60 -49 29 -95
85 -119 142 -15 37 -25 48 -42 48 -13 0 -26 -7 -29 -16z"/>
<path d="M655 2630 l-50 -17 -3 -54 c-4 -67 10 -81 70 -67 59 13 68 24 68 78
0 69 -19 83 -85 60z"/>
<path d="M786 2631 c-19 -21 -21 -91 -3 -113 6 -9 31 -22 55 -28 61 -16 74 -3
70 68 l-3 55 -52 18 c-49 16 -52 16 -67 0z"/>
<path d="M4121 2631 c-56 -20 -65 -36 -57 -93 8 -54 24 -63 75 -47 54 17 61
27 61 83 0 67 -18 80 -79 57z"/>
<path d="M2648 2608 c-56 -29 -74 -57 -47 -73 33 -21 139 36 139 75 0 14 -24
35 -33 29 -1 -1 -28 -14 -59 -31z"/>
<path d="M4248 2628 c-14 -11 -16 -23 -10 -68 l7 -55 50 -11 c70 -15 75 -11
75 57 0 56 -2 60 -27 70 -49 18 -78 21 -95 7z"/>
<path d="M3191 2574 c-76 -20 -114 -47 -151 -105 -50 -76 -51 -122 -5 -203 40
-71 66 -96 103 -96 12 0 76 34 142 76 100 63 120 80 120 100 0 31 -42 74 -72
74 -20 1 -17 4 16 25 21 13 43 29 47 37 16 24 9 64 -14 86 -28 26 -102 29
-186 6z m139 -53 c0 -6 -23 -22 -52 -38 -45 -24 -98 -80 -98 -103 0 -4 9 -18
19 -31 19 -23 19 -23 70 -7 28 9 51 14 51 12 0 -3 -42 -32 -92 -65 -105 -67
-97 -69 -145 25 -24 48 -25 49 -7 88 16 35 74 97 92 98 4 1 30 7 57 15 59 16
105 19 105 6z"/>
<path d="M1865 2504 c-11 -8 -45 -24 -77 -35 -60 -22 -76 -42 -56 -66 16 -19
56 -11 134 27 65 32 82 53 63 76 -15 18 -39 17 -64 -2z"/>
<path d="M2690 2497 c-33 -16 -64 -80 -55 -114 10 -40 58 -83 95 -83 38 0 86
24 100 49 16 30 12 94 -8 117 -34 43 -85 55 -132 31z"/>
<path d="M736 2481 c-10 -11 -16 -36 -16 -69 l0 -52 -65 0 c-39 0 -78 6 -99
16 -41 20 -92 13 -130 -17 -34 -26 -33 -43 3 -68 42 -30 84 -36 122 -17 21 10
58 16 106 16 69 0 77 2 104 29 26 26 29 36 29 93 0 51 -4 65 -19 75 -15 10
-22 9 -35 -6z"/>
<path d="M4201 2487 c-6 -6 -11 -41 -11 -78 0 -99 14 -112 127 -120 48 -3 102
-12 119 -19 38 -16 73 -8 114 26 30 26 30 27 13 46 -42 47 -97 59 -147 33 -17
-9 -56 -15 -97 -15 l-69 0 0 58 c0 45 -4 60 -19 69 -14 9 -21 9 -30 0z"/>
<path d="M1560 2443 c-8 -3 -27 -17 -42 -31 -64 -59 -18 -172 69 -172 112 0
148 147 48 195 -34 16 -49 17 -75 8z"/>
<path d="M1852 2391 c-10 -6 -12 -21 -7 -55 5 -34 3 -59 -10 -92 -16 -41 -16
-47 -2 -61 40 -40 81 35 75 135 -5 72 -22 95 -56 73z"/>
<path d="M2486 2355 c-15 -23 -15 -26 0 -32 60 -23 124 5 95 41 -22 26 -76 20
-95 -9z"/>
<path d="M2909 2344 c-12 -14 -6 -32 46 -131 64 -122 83 -143 109 -118 18 19
17 21 -52 149 -65 121 -77 132 -103 100z"/>
<path d="M1993 2328 c-5 -7 -17 -34 -27 -60 -9 -25 -24 -52 -32 -58 -20 -17
-18 -56 4 -65 34 -13 102 94 102 163 0 11 -7 23 -16 26 -21 8 -20 8 -31 -6z"/>
<path d="M2827 2304 c-14 -15 -6 -38 55 -150 62 -115 80 -132 108 -99 17 20
-105 249 -135 253 -12 2 -24 0 -28 -4z"/>
<path d="M2758 2259 c-10 -6 -18 -16 -18 -24 0 -23 121 -236 137 -242 8 -3 22
1 30 10 14 14 10 26 -41 124 -67 126 -83 146 -108 132z"/>
<path d="M764 2188 c-63 -38 -92 -115 -38 -102 18 5 24 2 24 -11 0 -11 -5 -15
-15 -11 -11 4 -15 -2 -15 -26 0 -35 -48 -118 -68 -118 -13 0 -115 89 -140 123
-16 21 -32 22 -58 2 -19 -15 -19 -15 1 -33 11 -9 49 -52 83 -94 35 -43 67 -78
71 -78 5 0 16 -12 26 -26 17 -26 16 -27 -16 -60 -26 -27 -36 -31 -51 -23 -23
12 -58 3 -58 -16 0 -7 21 -25 46 -39 l46 -26 30 22 c17 11 53 33 81 49 l50 27
36 -22 c20 -12 56 -30 81 -41 25 -10 49 -22 54 -26 14 -12 -66 -98 -92 -99
-52 0 -101 -42 -145 -124 -30 -53 -33 -82 -15 -121 10 -22 8 -28 -10 -46 -12
-11 -22 -28 -22 -38 0 -20 30 -51 50 -51 9 0 11 -10 7 -36 -5 -27 -1 -40 14
-55 25 -25 50 -24 83 2 l27 21 25 -23 c22 -20 40 -25 117 -31 51 -4 122 -10
159 -14 l68 -6 36 36 c31 31 36 41 30 68 -3 18 -17 44 -30 58 -13 14 -30 45
-36 70 -7 25 -23 59 -36 76 -20 28 -22 34 -9 44 18 15 19 49 3 87 -6 15 -12
54 -12 85 -1 55 0 58 26 63 44 10 71 52 64 98 -10 58 -53 135 -112 201 -30 33
-54 63 -54 68 0 19 32 19 64 -1 36 -23 52 -16 41 18 -11 35 -84 53 -126 31
-13 -8 -19 -21 -19 -46 0 -28 10 -46 59 -98 71 -76 92 -114 94 -169 3 -71 -23
-61 -147 57 l-109 103 -3 59 c-1 32 -6 91 -12 129 -6 39 -8 80 -5 92 4 19 1
23 -18 23 -13 0 -42 2 -64 5 -23 3 -49 0 -61 -7z m326 -760 c0 -28 -16 -21
-66 26 -41 40 -45 46 -34 67 12 22 13 22 56 -27 24 -27 43 -57 44 -66z m-142
8 c37 -35 86 -73 109 -85 48 -24 67 -48 82 -106 6 -22 17 -49 25 -60 21 -27
20 -34 -4 -28 -11 3 -45 34 -76 69 -58 67 -124 112 -177 123 -27 6 -31 11 -31
41 -1 26 -6 36 -20 38 -40 8 -61 -62 -31 -105 9 -12 39 -28 70 -38 39 -11 68
-28 98 -58 63 -64 108 -120 89 -111 -9 4 -51 8 -93 9 -67 1 -80 4 -108 28 -35
29 -69 35 -89 15 -9 -9 -12 -7 -12 10 0 12 -9 31 -19 41 -17 17 -18 24 -8 50
9 24 8 37 -4 63 -15 32 -14 35 16 88 30 54 62 80 98 80 11 0 49 -29 85 -64z"/>
<path d="M4111 2192 c-7 -5 -22 -7 -34 -4 -17 4 -19 2 -12 -14 9 -23 9 -20 -6
-114 -6 -41 -11 -93 -10 -115 2 -54 -16 -78 -132 -180 -103 -91 -127 -100
-127 -45 0 49 26 97 89 166 67 74 80 105 55 141 -14 22 -21 25 -60 20 -46 -5
-84 -29 -84 -54 0 -18 31 -17 58 3 23 16 52 13 52 -5 0 -6 -25 -38 -55 -72
-122 -136 -140 -270 -40 -295 22 -5 25 -11 25 -51 0 -25 -7 -70 -16 -100 -15
-50 -15 -56 1 -73 15 -17 15 -21 -9 -57 -14 -21 -29 -54 -32 -73 -4 -19 -20
-50 -36 -68 -39 -45 -38 -93 2 -134 30 -30 32 -30 103 -24 40 4 111 10 159 14
68 5 93 12 118 30 l32 24 22 -21 c46 -43 103 -12 91 51 -6 30 -4 34 24 45 25
9 31 17 31 42 0 18 -7 35 -20 44 -19 13 -19 16 -4 54 16 41 16 41 -21 112 -42
80 -77 111 -136 118 -31 5 -43 12 -54 34 -8 15 -24 34 -36 43 -26 18 -19 32
20 41 16 3 55 21 86 40 l56 34 47 -26 c26 -14 62 -36 81 -49 l34 -23 39 20
c42 22 57 44 40 61 -8 8 -18 8 -34 1 -20 -9 -29 -6 -61 22 l-38 33 66 73 c36
41 84 94 107 118 31 34 38 48 31 60 -19 30 -38 21 -113 -49 -41 -38 -81 -70
-88 -70 -20 0 -72 90 -66 115 4 17 0 24 -15 28 -31 8 -26 29 7 25 41 -5 41 30
-2 71 -25 25 -46 34 -78 38 -23 2 -49 0 -57 -5z m-121 -686 c-1 -16 -40 -60
-72 -81 -25 -15 -28 -16 -34 -1 -9 23 77 117 94 104 6 -6 12 -16 12 -22z m170
-22 c15 -9 39 -41 53 -70 25 -50 25 -55 12 -88 -11 -26 -12 -42 -5 -62 8 -20
7 -31 -3 -43 -8 -9 -17 -24 -20 -33 -5 -14 -13 -16 -37 -11 -25 5 -37 0 -61
-23 -28 -26 -36 -29 -92 -27 -34 2 -77 -2 -96 -7 l-34 -9 25 27 c14 15 35 42
47 60 23 33 113 92 142 92 9 0 28 9 43 21 47 37 26 143 -22 112 -10 -6 -17
-23 -17 -38 0 -24 -6 -29 -41 -40 -59 -17 -126 -67 -168 -124 -21 -28 -49 -54
-66 -60 l-30 -10 19 37 c11 20 28 60 38 87 16 44 25 54 75 80 32 17 81 57 111
88 57 62 79 69 127 41z"/>
<path d="M1789 2101 c-28 -28 -29 -33 -29 -120 0 -79 2 -92 21 -104 31 -22 54
-11 105 52 59 71 68 94 53 138 -21 64 -101 83 -150 34z"/>
<path d="M2300 1625 c-17 -21 -1 -39 48 -53 21 -7 46 -20 56 -30 16 -18 15
-19 -31 -15 -93 8 -178 -36 -141 -73 14 -14 22 -15 49 -5 45 15 111 14 135 -4
18 -13 17 -14 -18 -15 -47 0 -122 -54 -126 -92 -4 -36 21 -42 55 -14 39 32 68
46 97 46 56 0 56 0 56 -157 0 -80 -3 -143 -8 -141 -4 2 -39 16 -79 32 l-71 28
-278 -106 -279 -105 90 -1 c88 0 95 2 274 70 100 39 188 70 194 70 7 0 34 -11
61 -23 l49 -23 -104 -47 -104 -47 79 0 c75 0 84 3 223 65 193 87 201 87 396 0
143 -65 148 -66 222 -63 l75 3 -222 98 c-255 111 -283 116 -384 72 -31 -14
-60 -25 -65 -25 -5 0 -9 65 -9 145 0 132 2 145 19 155 38 20 70 11 117 -32 37
-34 49 -40 62 -31 9 5 18 17 20 25 4 20 -64 87 -107 106 l-36 15 28 8 c17 4
49 2 79 -6 61 -15 78 -11 78 19 0 15 -9 27 -27 35 -41 19 -126 25 -162 13 -17
-6 -31 -7 -31 -3 0 12 45 40 88 55 29 10 37 18 37 37 0 52 -94 30 -161 -36
l-42 -43 -20 28 c-23 31 -114 80 -148 80 -12 0 -27 -7 -34 -15z"/>
<path d="M541 1524 c-22 -28 -28 -88 -11 -99 15 -9 40 14 40 37 0 10 7 30 16
43 30 46 -10 63 -45 19z"/>
<path d="M4384 1536 c-3 -8 2 -28 10 -45 9 -16 16 -37 16 -45 0 -22 19 -30 36
-15 10 9 13 21 8 43 -13 61 -56 99 -70 62z"/>
<path d="M631 1514 c-25 -32 -46 -97 -38 -118 4 -9 17 -16 31 -16 19 0 26 7
31 33 4 17 16 44 27 60 11 15 18 35 16 45 -5 28 -43 26 -67 -4z"/>
<path d="M4277 1533 c-13 -12 -7 -36 12 -57 11 -12 23 -37 28 -56 7 -28 14
-35 34 -35 43 0 39 70 -7 124 -24 29 -52 39 -67 24z"/>
<path d="M563 1344 c-3 -9 -1 -24 4 -33 7 -11 7 -23 2 -33 -14 -26 0 -49 28
-46 17 2 32 15 47 41 l21 38 -28 24 c-32 29 -65 32 -74 9z"/>
<path d="M4342 1337 c-12 -13 -22 -30 -22 -39 0 -24 39 -68 61 -68 24 0 36 27
22 49 -7 11 -7 21 0 32 14 22 2 49 -21 49 -10 0 -28 -10 -40 -23z"/>
<path d="M9710 1228 c0 -99 116 -227 206 -228 12 0 33 -9 47 -20 34 -27 45
-25 20 3 -12 12 -24 38 -28 57 -19 91 -90 169 -176 194 -67 20 -69 20 -69 -6z"/>
<path d="M10285 1241 c-97 -24 -195 -135 -195 -222 0 -7 -10 -23 -22 -36 -12
-13 -17 -23 -11 -23 5 0 18 9 28 20 10 11 29 20 42 20 90 0 213 128 213 223 0
28 -5 30 -55 18z"/>
<path d="M10024 1090 c0 -74 1 -105 3 -67 2 37 2 97 0 135 -2 37 -3 6 -3 -68z"/>
<path d="M9271 923 c81 -82 87 -92 98 -147 25 -131 89 -187 217 -185 38 0 94
8 124 18 l55 17 -1 71 c0 62 -4 77 -35 128 -77 129 -207 185 -429 185 l-115 0
86 -87z"/>
<path d="M10546 994 c-119 -29 -219 -101 -260 -189 -24 -49 -37 -131 -27 -158
18 -47 208 -76 284 -43 64 27 99 81 118 181 8 45 19 60 97 138 l87 87 -120 -1
c-66 0 -146 -7 -179 -15z"/>
<path d="M703 953 c-30 -11 -11 -55 62 -143 47 -56 73 -95 69 -103 -4 -6 -38
-49 -76 -93 -37 -45 -68 -90 -68 -101 0 -41 12 -43 307 -43 l283 0 0 186 c0
226 6 244 83 244 29 0 37 4 37 18 0 41 -11 42 -354 41 -182 0 -337 -3 -343 -6z"/>
<path d="M3585 944 c-24 -25 -13 -39 33 -42 69 -5 72 -16 72 -239 l0 -193 284
0 c245 0 287 2 300 16 9 8 16 20 16 26 0 6 -35 55 -79 108 l-78 96 69 84 c84
103 96 124 78 145 -11 13 -59 15 -346 15 -293 0 -334 -2 -349 -16z"/>
<path d="M9852 881 c4 -13 18 -16 19 -4 0 4 -5 9 -11 12 -7 2 -11 -2 -8 -8z"/>
<path d="M9910 874 c0 -14 3 -14 15 -4 8 7 15 14 15 16 0 2 -7 4 -15 4 -8 0
-15 -7 -15 -16z"/>
<path d="M10090 880 c0 -5 7 -10 15 -10 8 0 15 5 15 10 0 6 -7 10 -15 10 -8 0
-15 -4 -15 -10z"/>
<path d="M10152 879 c2 -6 8 -10 13 -10 5 0 11 4 13 10 2 6 -4 11 -13 11 -9 0
-15 -5 -13 -11z"/>
<path d="M1330 841 c-6 -12 -10 -116 -10 -269 0 -228 2 -250 18 -265 17 -16
111 -17 1146 -17 758 0 1134 3 1147 10 18 10 19 24 19 273 0 191 -3 266 -12
275 -9 9 -279 12 -1155 12 -1119 0 -1143 0 -1153 -19z m210 -127 c0 -13 -3
-14 -15 -4 -17 14 -35 5 -35 -16 0 -11 6 -13 20 -9 15 5 20 2 20 -10 0 -11 -5
-15 -15 -12 -19 8 -31 -11 -16 -26 8 -8 14 -8 23 1 17 17 29 15 22 -3 -4 -10
-20 -15 -45 -15 l-39 0 0 55 0 55 40 0 c30 0 40 -4 40 -16z m53 -28 c-6 -45 9
-68 30 -47 16 16 27 14 21 -4 -4 -10 -20 -15 -45 -15 l-39 0 0 55 c0 47 3 55
19 55 16 0 18 -6 14 -44z m197 29 c0 -8 -4 -15 -10 -15 -5 0 -10 5 -10 11 0 5
-5 7 -11 3 -7 -4 -9 -24 -6 -50 4 -38 2 -44 -14 -44 -16 0 -19 8 -19 51 0 45
-2 50 -15 39 -17 -14 -31 -8 -20 9 3 6 28 11 56 11 37 0 49 -4 49 -15z m95 4
c10 -16 -4 -24 -17 -11 -18 18 -28 15 -28 -9 0 -15 5 -19 15 -15 9 3 15 0 15
-10 0 -10 -6 -14 -15 -10 -10 4 -15 -1 -15 -14 0 -21 15 -27 25 -10 9 15 25
12 25 -5 0 -11 -12 -15 -45 -15 l-45 0 0 55 0 55 39 0 c22 0 43 -5 46 -11z
m66 -16 l11 -28 14 28 c8 15 23 27 34 27 18 0 20 -7 20 -55 0 -48 -2 -55 -20
-55 -16 0 -20 7 -20 38 l-1 37 -14 -32 c-8 -18 -16 -33 -19 -33 -3 0 -12 12
-21 28 l-16 27 4 -32 c2 -19 -1 -33 -7 -33 -7 0 -11 22 -11 55 0 46 3 55 18
55 10 0 22 -12 28 -27z m180 11 c17 -20 1 -48 -30 -52 -17 -3 -22 -9 -18 -23
4 -14 0 -19 -16 -19 -20 0 -22 5 -22 55 l0 55 36 0 c21 0 42 -7 50 -16z m52
-28 c-6 -45 9 -68 30 -47 16 16 27 14 21 -4 -4 -10 -20 -15 -44 -15 l-38 0 -4
55 c-3 51 -1 55 18 55 19 0 21 -4 17 -44z m147 29 c0 -18 -17 -20 -22 -3 -5
15 -28 1 -28 -18 0 -11 6 -13 20 -9 14 5 20 2 20 -10 0 -12 -6 -15 -20 -10
-14 4 -20 2 -20 -9 0 -21 18 -30 35 -16 12 10 15 9 15 -4 0 -12 -10 -16 -42
-16 l-43 0 0 55 0 55 43 0 c31 0 42 -4 42 -15z m147 -11 c15 -24 15 -29 2 -53
-12 -21 -23 -27 -57 -29 l-42 -3 0 55 0 56 40 0 c32 0 43 -5 57 -26z m103 9
c0 -13 -3 -14 -12 -5 -18 18 -28 15 -28 -8 0 -13 5 -18 15 -14 10 4 15 0 15
-11 0 -11 -5 -15 -15 -11 -10 4 -15 -1 -15 -14 0 -23 10 -26 28 -8 13 13 27 5
17 -11 -3 -6 -24 -11 -46 -11 l-39 0 0 55 0 55 40 0 c31 0 40 -4 40 -17z m60
-33 c0 -51 6 -60 28 -38 13 13 27 5 17 -11 -3 -6 -24 -11 -46 -11 l-39 0 0 55
c0 48 2 55 20 55 17 0 20 -7 20 -50z m170 35 c6 -8 9 -19 5 -25 -4 -6 -1 -17
5 -25 19 -23 -6 -45 -51 -45 l-39 0 0 55 0 55 34 0 c18 0 39 -7 46 -15z m115
-27 c0 -20 5 -42 12 -49 9 -9 15 -3 27 26 9 21 16 44 16 51 0 31 32 11 51 -31
11 -25 24 -45 29 -45 12 0 54 70 46 77 -3 3 -12 0 -21 -7 -18 -15 -34 -5 -18
11 6 6 29 9 52 7 l42 -3 -30 -47 c-28 -44 -29 -48 -11 -48 11 0 20 5 20 10 0
6 5 10 10 10 6 0 10 -7 10 -15 0 -12 -15 -15 -75 -15 -54 0 -74 3 -72 12 1 7
-8 14 -20 16 -16 2 -23 -2 -23 -12 0 -27 -64 -21 -78 7 l-11 22 0 -22 c-1 -16
-7 -23 -21 -23 -18 0 -20 7 -20 56 l0 55 43 -3 c41 -3 42 -4 42 -40z m345 27
c7 -8 13 -26 13 -40 0 -36 -21 -55 -58 -55 -37 0 -57 19 -57 55 0 36 20 55 57
55 18 0 38 -7 45 -15z m140 -1 c0 -14 -3 -14 -15 -4 -11 9 -19 10 -27 2 -14
-14 -1 -33 17 -25 10 3 15 -1 15 -12 0 -11 -5 -15 -15 -12 -18 7 -31 -11 -17
-25 7 -7 19 -4 37 8 25 17 28 17 37 1 9 -18 38 -24 38 -8 0 5 -12 16 -26 25
-39 26 -30 60 19 64 32 3 37 1 37 -19 0 -21 -1 -22 -20 -4 -11 10 -23 15 -28
11 -7 -7 3 -17 45 -42 14 -10 16 -16 7 -30 -9 -16 -26 -19 -98 -21 l-86 -2 0
54 0 55 40 0 c30 0 40 -4 40 -16z m-1700 -216 c11 -37 14 -40 21 -23 4 11 8
30 8 43 1 13 7 22 16 22 8 0 15 -2 15 -5 0 -10 -49 -115 -54 -115 -7 0 -41 66
-50 98 -6 17 -3 22 12 22 14 0 22 -12 32 -42z m108 -15 c-2 -44 -7 -58 -18
-58 -11 0 -16 14 -18 58 -3 52 -1 57 18 57 19 0 21 -5 18 -57z m116 41 c9 -24
-1 -30 -21 -12 -10 9 -24 13 -30 11 -17 -6 -17 -58 0 -72 16 -13 28 -5 20 15
-3 9 2 14 16 14 15 0 21 -6 21 -24 0 -18 -7 -25 -32 -30 -63 -13 -103 50 -61
96 21 23 78 24 87 2z m118 -1 c25 -23 23 -68 -4 -87 -30 -21 -54 -20 -78 4
-55 55 24 136 82 83z m112 1 c12 -12 13 -20 5 -35 -7 -15 -7 -24 1 -34 7 -8 9
-19 6 -24 -10 -15 -34 -2 -42 22 -7 21 -8 21 -14 -3 -3 -14 -12 -25 -20 -25
-11 0 -16 15 -18 58 l-3 57 35 0 c19 0 42 -7 50 -16z m146 -6 c0 -17 -3 -19
-12 -10 -17 17 -38 15 -38 -4 0 -10 6 -14 15 -10 10 4 15 -1 15 -14 0 -13 -5
-18 -15 -14 -9 4 -15 0 -15 -10 0 -19 21 -21 38 -4 9 9 12 7 12 -11 0 -20 -4
-22 -41 -19 l-41 3 -1 58 -2 57 42 0 c38 0 43 -3 43 -22z m72 -10 l27 -33 1
33 c0 17 5 32 10 32 12 0 13 -90 1 -108 -6 -10 -18 -3 -45 30 l-38 43 3 -37
c2 -21 0 -38 -5 -38 -4 0 -9 25 -9 55 -2 66 14 72 55 23z m128 -18 c0 -51 12
-64 38 -38 9 9 12 7 12 -11 0 -20 -4 -22 -41 -19 l-41 3 -1 58 c-2 48 1 57 15
57 15 0 18 -9 18 -50z m145 -2 c12 -29 19 -57 15 -62 -11 -12 -43 1 -35 14 3
6 -1 13 -11 17 -11 4 -23 -2 -36 -18 -20 -26 -20 -21 2 54 8 26 20 47 28 47 7
0 24 -24 37 -52z m165 30 c0 -17 -3 -19 -12 -10 -23 23 -31 12 -26 -33 6 -47
0 -59 -24 -50 -9 4 -12 19 -9 51 3 43 2 46 -18 39 -20 -6 -28 4 -14 18 3 4 28
7 55 7 43 0 48 -2 48 -22z m48 -35 c-2 -44 -7 -58 -18 -58 -11 0 -16 14 -18
58 -3 52 -1 57 18 57 19 0 21 -5 18 -57z m102 35 c0 -17 -3 -19 -12 -10 -17
17 -38 15 -38 -3 0 -9 7 -15 16 -13 10 2 19 -3 21 -9 3 -8 -4 -13 -16 -13 -12
0 -21 -6 -21 -15 0 -18 21 -20 38 -3 9 9 12 7 12 -10 0 -18 -6 -22 -29 -22
-52 0 -56 6 -53 65 l4 55 39 0 c34 0 39 -3 39 -22z m92 11 c14 -8 18 -17 14
-34 -7 -26 1 -55 15 -55 5 0 9 23 9 50 l0 50 34 0 c38 0 61 -21 52 -46 -8 -20
2 -54 14 -54 5 0 17 23 27 50 10 28 23 50 28 50 6 0 23 -25 37 -54 21 -45 23
-56 11 -60 -19 -8 -33 1 -33 20 0 20 -37 17 -42 -4 -7 -27 -55 -22 -79 8 l-20
25 3 -25 c3 -22 -1 -25 -32 -26 -26 0 -41 6 -59 25 -22 25 -23 25 -18 4 5 -21
-8 -34 -28 -27 -7 3 -12 87 -6 112 2 7 55 1 73 -9z"/>
<path d="M2080 689 c0 -11 5 -17 10 -14 6 3 10 13 10 21 0 8 -4 14 -10 14 -5
0 -10 -9 -10 -21z"/>
<path d="M2420 675 c0 -41 2 -46 15 -35 8 7 15 23 15 35 0 12 -7 28 -15 35
-13 11 -15 6 -15 -35z"/>
<path d="M2770 704 c0 -8 5 -12 10 -9 6 4 8 11 5 16 -9 14 -15 11 -15 -7z"/>
<path d="M2770 649 c0 -11 5 -17 10 -14 6 3 10 13 10 21 0 8 -4 14 -10 14 -5
0 -10 -9 -10 -21z"/>
<path d="M2880 700 c0 -19 3 -21 12 -12 9 9 9 15 0 24 -9 9 -12 7 -12 -12z"/>
<path d="M2986 681 c-4 -7 -5 -15 -2 -18 9 -9 19 4 14 18 -4 11 -6 11 -12 0z"/>
<path d="M3211 706 c-10 -12 -10 -22 -2 -41 16 -36 26 -35 29 4 4 40 -10 58
-27 37z"/>
<path d="M1990 493 c0 -38 16 -61 30 -47 17 17 8 68 -12 72 -14 3 -18 -3 -18
-25z"/>
<path d="M2120 499 c0 -11 5 -17 10 -14 6 3 10 13 10 21 0 8 -4 14 -10 14 -5
0 -10 -9 -10 -21z"/>
<path d="M2606 485 c-3 -8 -1 -15 4 -15 6 0 10 7 10 15 0 8 -2 15 -4 15 -2 0
-6 -7 -10 -15z"/>
<path d="M3020 505 c0 -8 5 -15 10 -15 6 0 10 7 10 15 0 8 -4 15 -10 15 -5 0
-10 -7 -10 -15z"/>
<path d="M3130 505 c0 -8 5 -15 10 -15 6 0 10 7 10 15 0 8 -4 15 -10 15 -5 0
-10 -7 -10 -15z"/>
<path d="M3240 480 c0 -5 5 -10 10 -10 6 0 10 5 10 10 0 6 -4 10 -10 10 -5 0
-10 -4 -10 -10z"/>
<path d="M6183 792 c-30 -5 -63 -48 -63 -84 0 -66 94 -104 140 -58 11 11 20
25 20 30 0 7 483 10 1430 10 1428 0 1430 0 1418 20 -13 20 -24 20 -1424 20
l-1412 0 -15 24 c-18 26 -60 44 -94 38z m45 -48 c37 -26 23 -74 -23 -74 -42 0
-59 44 -29 74 19 20 24 20 52 0z"/>
<path d="M13753 785 c-17 -7 -34 -23 -38 -34 l-6 -21 -1399 0 c-1265 0 -1398
-1 -1404 -16 -3 -9 -6 -18 -6 -20 0 -2 632 -4 1405 -4 892 0 1405 -4 1405 -10
0 -21 45 -50 77 -50 71 0 108 81 61 134 -30 32 -56 38 -95 21z m58 -35 c21
-12 25 -50 7 -68 -21 -21 -57 -14 -70 14 -11 23 -10 29 11 45 27 22 27 22 52
9z"/>
</g>
</svg>
