<?xml version="1.0" standalone="no"?>
<!DOCTYPE svg PUBLIC "-//W3C//DTD SVG 20010904//EN"
 "http://www.w3.org/TR/2001/REC-SVG-20010904/DTD/svg10.dtd">
<svg version="1.0" xmlns="http://www.w3.org/2000/svg"
 width="600.000000pt" height="480.000000pt" viewBox="0 0 600.000000 480.000000"
 preserveAspectRatio="xMidYMid meet">

<g transform="translate(0.000000,480.000000) scale(0.100000,-0.100000)"
fill="#000000" stroke="none">
<path d="M2625 4631 c-102 -47 -149 -140 -125 -243 25 -104 126 -163 235 -139
90 20 142 101 100 157 -23 30 -18 40 9 15 25 -24 41 -69 51 -146 3 -27 8 -60
11 -72 3 -18 -2 -22 -36 -28 -52 -9 -90 -39 -83 -65 3 -11 0 -20 -6 -20 -6 0
-29 -18 -52 -41 -32 -32 -46 -39 -65 -35 -13 4 -33 2 -44 -4 -18 -10 -20 -21
-20 -118 0 -59 4 -113 9 -121 7 -10 21 -12 53 -8 41 6 47 3 76 -26 78 -81 14
-213 -151 -314 -68 -41 -65 -52 19 -60 85 -7 190 18 294 71 95 49 194 80 287
91 32 4 62 10 66 12 4 3 -13 23 -39 46 -50 44 -83 104 -84 149 0 15 9 45 21
67 25 48 28 131 7 181 -15 35 -84 110 -101 110 -5 0 -6 7 -3 16 9 24 -20 52
-66 64 -26 8 -38 16 -38 29 0 35 29 114 51 137 27 29 50 32 24 4 -25 -28 -24
-83 1 -117 13 -17 41 -35 75 -46 46 -16 61 -17 107 -7 194 43 205 307 15 387
-77 32 -195 5 -253 -57 l-28 -30 -12 35 c-38 114 -192 178 -305 126z m182 -32
c24 -12 55 -37 68 -57 29 -43 33 -62 8 -40 -39 34 -86 50 -146 49 -71 0 -102
-18 -131 -75 -16 -32 -17 -44 -7 -76 13 -43 27 -57 69 -69 48 -14 62 5 17 24
-47 19 -55 29 -55 75 0 48 23 77 71 90 53 15 105 3 145 -32 44 -39 43 -52 -1
-31 -62 30 -126 -10 -66 -41 35 -19 45 -44 32 -79 -16 -41 -56 -61 -122 -62
-65 0 -98 18 -136 75 -27 39 -31 112 -9 163 40 94 164 134 263 86z m435 -88
c117 -74 115 -240 -5 -300 -38 -19 -56 -22 -92 -17 -58 9 -105 48 -105 86 0
29 6 38 45 64 16 12 17 16 6 30 -19 22 -63 20 -95 -5 -31 -25 -34 -9 -5 32 28
40 69 59 124 59 38 0 52 -5 76 -29 49 -49 36 -123 -23 -139 -35 -9 -32 -27 5
-25 60 3 97 72 75 138 -17 50 -55 77 -116 83 -60 5 -112 -10 -146 -45 -34 -34
-34 -14 0 27 64 75 174 93 256 41z m-229 -380 c17 -17 4 -21 -43 -10 -41 9
-85 7 -132 -7 -29 -9 -20 13 10 25 33 13 150 7 165 -8z m13 -59 c176 -90 140
-329 -57 -371 -76 -17 -169 9 -213 58 -11 12 -16 21 -13 21 4 0 49 11 101 25
52 14 113 25 135 25 31 0 48 6 66 25 30 29 31 45 4 79 -17 22 -28 26 -69 26
-26 0 -92 9 -145 20 -53 11 -100 20 -103 20 -3 0 5 12 19 26 67 72 186 92 275
46z m-241 -112 c152 -29 142 -25 140 -67 l-1 -37 -129 -33 c-72 -18 -137 -33
-147 -33 -14 0 -16 13 -16 92 -1 102 2 111 26 104 10 -3 67 -14 127 -26z m244
-48 c13 -25 -5 -52 -34 -52 -31 0 -52 35 -34 56 16 20 56 18 68 -4z m71 -210
c0 -21 35 -90 61 -118 10 -11 19 -23 19 -26 0 -3 -22 -8 -49 -12 -67 -9 -171
-46 -264 -94 -76 -39 -188 -68 -237 -60 -18 2 -12 11 41 53 87 69 121 120 127
190 4 47 7 55 21 48 9 -4 50 -9 91 -10 63 -3 83 0 125 21 61 30 65 30 65 8z"/>
<path d="M2677 3944 c-4 -4 -7 -32 -7 -61 0 -47 3 -54 18 -51 14 3 17 14 17
57 0 50 -11 72 -28 55z"/>
<path d="M2750 3890 c0 -34 3 -41 18 -38 12 2 17 13 17 38 0 25 -5 36 -17 38
-15 3 -18 -4 -18 -38z"/>
<path d="M2830 3890 c0 -21 4 -30 13 -27 6 2 12 14 12 27 0 13 -6 25 -12 28
-9 2 -13 -7 -13 -28z"/>
<path d="M2137 3542 c-15 -17 -17 -56 -17 -381 0 -340 1 -362 18 -359 16 3 17
31 22 363 l5 360 240 5 c323 7 317 24 -8 28 -226 2 -245 1 -260 -16z"/>
<path d="M3340 3545 c0 -12 27 -15 158 -17 l157 -3 5 -360 c4 -311 7 -360 20
-360 23 0 28 697 5 732 -15 23 -18 23 -180 23 -139 0 -165 -2 -165 -15z"/>
<path d="M1930 3490 c0 -33 -2 -60 -3 -60 -2 0 -18 7 -35 16 -18 8 -42 14 -54
12 -19 -2 -23 -9 -21 -32 3 -36 36 -72 79 -86 31 -11 34 -15 34 -52 0 -37 -2
-40 -22 -33 -45 14 -86 17 -93 6 -9 -15 25 -82 48 -95 15 -9 22 -6 38 17 12
15 29 27 40 27 10 0 19 6 19 13 0 8 18 19 40 26 42 12 80 57 80 94 0 32 -26
33 -102 2 -15 -6 -18 -1 -18 32 0 38 2 40 40 52 61 18 106 102 64 118 -15 6
-29 2 -86 -22 -13 -5 -18 -2 -18 9 0 9 -7 16 -15 16 -12 0 -15 -13 -15 -60z
m94 -11 c-18 -20 -44 -26 -44 -10 0 5 12 19 27 31 32 25 45 10 17 -21z m0
-180 c-18 -20 -44 -26 -44 -10 0 5 12 19 27 31 32 25 45 10 17 -21z"/>
<path d="M3740 3528 c0 -41 36 -86 80 -99 38 -12 40 -14 40 -52 0 -33 -3 -38
-17 -32 -87 35 -109 31 -99 -17 8 -42 31 -66 78 -80 21 -6 38 -17 38 -25 0 -7
7 -13 15 -13 9 0 27 -12 41 -27 20 -21 29 -25 42 -17 22 13 55 80 47 94 -9 14
-55 12 -87 -4 l-28 -15 0 43 c0 41 2 44 39 58 42 17 69 49 73 88 4 32 -28 38
-74 16 -17 -9 -33 -16 -35 -16 -1 0 -3 27 -3 60 0 47 -3 60 -15 60 -8 0 -15
-7 -15 -15 0 -18 -8 -18 -40 0 -14 8 -37 14 -52 15 -22 0 -28 -5 -28 -22z m83
-36 c20 -17 22 -32 5 -32 -17 0 -48 31 -48 47 0 15 13 11 43 -15z m0 -180 c20
-17 22 -32 5 -32 -17 0 -48 31 -48 47 0 15 13 11 43 -15z"/>
<path d="M2957 3413 c-4 -3 -7 -10 -7 -15 0 -4 127 -9 283 -10 l282 -3 3 -415
c2 -286 0 -432 -8 -470 -16 -76 -62 -167 -116 -228 -39 -45 -43 -53 -28 -59
44 -17 165 186 184 307 5 36 10 244 10 463 0 384 -1 398 -20 417 -19 19 -33
20 -298 20 -153 0 -282 -3 -285 -7z"/>
<path d="M2286 3395 c-14 -15 -16 -63 -16 -428 0 -448 5 -498 55 -598 36 -71
114 -169 136 -169 18 0 9 20 -39 82 -54 71 -87 137 -102 200 -5 25 -10 225
-10 470 l0 427 73 3 c39 2 72 8 72 13 0 6 -34 11 -76 13 -60 2 -80 -1 -93 -13z"/>
<path d="M2932 3284 c-30 -21 -29 -59 3 -80 30 -20 66 -9 85 26 9 17 7 24 -14
45 -29 29 -43 31 -74 9z"/>
<path d="M2610 3208 c-38 -20 -50 -34 -80 -95 -19 -39 -45 -82 -57 -95 -26
-28 -30 -48 -9 -48 22 0 64 56 95 125 41 90 59 99 205 105 83 3 121 9 124 18
3 9 -25 12 -115 12 -103 0 -125 -3 -163 -22z"/>
<path d="M1915 3170 c-17 -19 -17 -21 0 -40 10 -11 23 -20 30 -20 7 0 20 9 30
20 17 19 17 21 0 40 -10 11 -23 20 -30 20 -7 0 -20 -9 -30 -20z"/>
<path d="M2873 3156 c-23 -17 -42 -37 -42 -43 -2 -23 29 -13 67 21 51 47 32
64 -25 22z"/>
<path d="M3845 3170 c-17 -19 -17 -21 0 -40 10 -11 23 -20 30 -20 7 0 20 9 30
20 17 19 17 21 0 40 -10 11 -23 20 -30 20 -7 0 -20 -9 -30 -20z"/>
<path d="M2653 3148 c-75 -42 -71 -78 9 -92 42 -8 78 6 78 30 0 8 7 26 16 39
13 20 14 28 4 40 -18 22 -49 17 -107 -17z"/>
<path d="M3110 3150 c-57 -7 -70 -15 -70 -44 0 -53 57 -61 108 -16 54 50 41
70 -38 60z"/>
<path d="M1848 3128 c-33 -11 -34 -18 -10 -48 14 -18 22 -20 44 -11 37 14 41
25 15 48 -18 17 -27 19 -49 11z"/>
<path d="M1987 3116 c-13 -19 -13 -26 -4 -34 27 -20 48 -21 67 -2 26 26 25 34
-5 48 -36 16 -40 15 -58 -12z"/>
<path d="M3773 3130 c-27 -11 -28 -18 -7 -48 11 -17 21 -21 37 -16 44 13 50
25 26 51 -25 26 -25 25 -56 13z"/>
<path d="M3920 3118 c-27 -29 -25 -34 13 -47 28 -11 34 -9 50 10 23 29 22 35
-13 48 -26 9 -33 7 -50 -11z"/>
<path d="M2927 3104 c-14 -14 6 -24 49 -24 32 0 44 4 42 13 -5 13 -79 22 -91
11z"/>
<path d="M1935 3081 c-6 -11 9 -23 19 -14 9 9 7 23 -3 23 -6 0 -12 -4 -16 -9z"/>
<path d="M2784 3067 c15 -60 91 -242 109 -260 19 -19 64 -20 107 -3 11 5 23
-5 38 -33 l23 -40 -64 -35 c-70 -39 -111 -45 -159 -20 -25 13 -44 45 -109 180
-50 103 -85 164 -94 164 -8 0 -15 -4 -15 -9 0 -5 36 -83 79 -174 88 -180 103
-197 183 -205 37 -4 60 2 110 25 35 17 74 39 87 50 l24 20 -32 56 c-35 61 -42
64 -103 45 -52 -15 -56 -10 -111 137 -31 82 -51 121 -62 123 -14 3 -16 -1 -11
-21z"/>
<path d="M3862 3081 c2 -7 7 -12 11 -12 12 1 9 15 -3 20 -7 2 -11 -2 -8 -8z"/>
<path d="M2850 3064 c0 -29 38 -80 74 -99 51 -28 56 -11 9 32 -22 21 -43 48
-47 61 -8 25 -36 30 -36 6z"/>
<path d="M1883 3050 c-15 -6 -23 -18 -23 -34 0 -31 12 -38 44 -30 29 7 43 39
26 59 -14 17 -16 17 -47 5z"/>
<path d="M1963 3049 c-17 -17 -3 -59 23 -65 31 -8 44 2 44 32 0 17 -8 27 -26
34 -31 12 -28 12 -41 -1z"/>
<path d="M3003 3042 c-33 -15 -40 -26 -25 -36 11 -6 72 21 72 33 0 18 -15 19
-47 3z"/>
<path d="M3813 3050 c-17 -7 -23 -18 -23 -40 0 -31 7 -35 48 -24 19 5 22 12
20 37 -3 34 -13 40 -45 27z"/>
<path d="M3892 3048 c-20 -20 -14 -48 15 -59 36 -13 53 -5 53 26 0 18 -7 28
-26 35 -31 12 -28 12 -42 -2z"/>
<path d="M3286 3020 c-37 -12 -66 -38 -81 -75 -11 -25 -10 -35 6 -67 22 -43
49 -61 76 -50 36 14 133 74 133 81 0 4 -9 16 -20 26 -19 17 -19 18 3 36 49 40
-34 74 -117 49z m94 -25 c0 -3 -15 -11 -34 -19 -59 -24 -58 -87 1 -65 37 14
18 -6 -32 -34 l-45 -25 -20 28 c-11 15 -20 34 -20 42 1 20 32 56 60 67 26 10
90 15 90 6z"/>
<path d="M2556 2985 c-11 -8 -28 -15 -37 -15 -20 0 -33 -16 -24 -30 8 -13 100
22 100 39 0 20 -17 23 -39 6z"/>
<path d="M3007 2972 c-22 -24 -21 -45 1 -65 36 -33 102 -10 102 35 0 42 -73
63 -103 30z"/>
<path d="M1930 2951 c0 -23 -5 -30 -27 -34 -15 -3 -38 -1 -51 4 -34 13 -66 11
-88 -6 -19 -15 -19 -15 0 -30 15 -11 36 -13 90 -9 95 9 106 16 106 64 0 29 -4
40 -15 40 -10 0 -15 -10 -15 -29z"/>
<path d="M3860 2940 c0 -48 11 -55 106 -64 54 -4 75 -2 90 9 19 15 19 15 -1
31 -18 14 -46 15 -112 3 -38 -7 -53 2 -53 31 0 20 -5 30 -15 30 -11 0 -15 -11
-15 -40z"/>
<path d="M2366 2938 c-21 -29 -20 -41 2 -61 25 -23 65 -21 88 4 17 19 17 23 3
47 -20 37 -71 42 -93 10z"/>
<path d="M2554 2927 c-3 -9 -3 -20 0 -26 3 -5 1 -22 -4 -37 -14 -37 3 -53 24
-23 20 29 21 73 1 89 -12 10 -16 9 -21 -3z"/>
<path d="M2911 2916 c-9 -11 -6 -15 13 -18 33 -7 57 8 36 22 -21 13 -36 12
-49 -4z"/>
<path d="M3146 2911 c-7 -11 46 -115 65 -126 5 -4 14 -3 19 0 7 4 1 24 -16 53
-35 61 -59 87 -68 73z"/>
<path d="M2617 2865 c-17 -30 -22 -47 -15 -51 14 -9 58 41 58 66 0 36 -18 30
-43 -15z"/>
<path d="M3098 2884 c-10 -9 63 -124 78 -124 21 0 17 17 -18 76 -30 50 -46 63
-60 48z"/>
<path d="M3056 2861 c-7 -11 62 -131 75 -131 22 0 17 26 -17 80 -36 59 -47 69
-58 51z"/>
<path d="M1960 2833 c-20 -7 -50 -34 -50 -45 0 -4 7 -8 16 -8 10 0 12 -5 7
-12 -4 -7 -8 -19 -9 -26 -3 -18 -24 -42 -37 -42 -5 0 -29 15 -52 34 -26 22
-46 31 -54 27 -9 -6 4 -25 45 -66 62 -63 64 -87 10 -93 -33 -4 -33 -15 -1 -30
20 -9 31 -7 69 14 l44 25 49 -23 c26 -12 50 -23 51 -24 10 -6 -41 -43 -71 -53
-47 -16 -81 -69 -72 -111 4 -19 3 -30 -4 -30 -17 0 -13 -37 4 -44 8 -3 15 -15
15 -26 0 -25 22 -35 47 -22 12 7 25 7 38 0 10 -6 35 -11 54 -10 20 1 52 -3 72
-8 63 -17 119 19 91 59 -28 40 -58 111 -50 119 5 5 4 20 -2 36 -16 44 -12 65
15 78 43 20 28 83 -34 142 -39 37 -39 49 -1 41 37 -8 42 12 5 21 -60 15 -73
-25 -24 -72 45 -43 64 -83 47 -100 -11 -11 -23 -4 -75 44 -59 54 -62 60 -69
117 -4 33 -6 66 -5 73 1 6 -5 12 -13 12 -8 0 -20 2 -28 4 -7 3 -20 2 -28 -1z
m152 -352 c30 -29 18 -47 -15 -21 -28 22 -35 40 -17 40 6 0 20 -9 32 -19z
m-61 -27 c24 -20 54 -40 67 -45 20 -8 66 -87 56 -98 -2 -2 -26 17 -54 43 -27
25 -63 49 -80 52 -21 5 -29 12 -28 23 2 9 -4 16 -12 16 -9 0 -15 -9 -15 -24 0
-13 7 -27 15 -31 8 -4 31 -15 51 -24 20 -10 46 -30 57 -45 l20 -28 -51 5 c-29
2 -56 8 -61 13 -6 5 -19 9 -31 9 -22 0 -49 35 -40 50 3 6 2 18 -4 27 -12 23
12 71 42 83 12 5 23 9 24 9 0 1 21 -15 44 -35z"/>
<path d="M3814 2833 c-19 -4 -23 -13 -29 -79 l-7 -74 -65 -56 c-40 -34 -69
-52 -75 -46 -16 16 2 58 43 98 41 40 50 70 24 80 -23 9 -65 -5 -65 -21 0 -12
5 -12 25 -3 35 16 45 0 16 -24 -72 -57 -93 -135 -45 -157 24 -11 26 -15 19
-49 -3 -20 -8 -50 -9 -67 -3 -30 -25 -86 -47 -116 -29 -40 27 -76 90 -59 20 5
52 9 72 8 19 0 44 4 55 10 13 7 25 7 37 0 24 -13 47 -3 47 21 0 11 8 24 18 30
14 8 15 13 4 31 -7 11 -10 31 -7 43 9 36 -29 94 -72 108 -32 10 -80 46 -71 54
1 1 25 12 52 24 l49 21 45 -25 c44 -24 46 -25 71 -8 l26 17 -29 6 c-57 10 -55
33 8 95 42 41 55 60 45 65 -8 6 -29 -5 -57 -28 -50 -41 -67 -38 -89 16 -11 28
-11 32 2 32 23 0 18 16 -11 39 -27 21 -31 22 -70 14z m-64 -342 c0 -5 -12 -19
-27 -31 -32 -25 -45 -10 -17 21 18 20 44 26 44 10z m120 -46 c14 -21 16 -33 9
-47 -5 -10 -7 -23 -4 -28 9 -15 -18 -50 -40 -50 -12 0 -25 -4 -30 -9 -6 -5
-33 -11 -62 -13 l-51 -5 20 28 c11 15 37 35 57 45 20 9 43 20 51 24 8 4 15 18
15 31 0 15 -6 24 -15 24 -8 0 -14 -6 -13 -12 2 -7 -14 -20 -35 -28 -20 -9 -56
-35 -79 -57 -24 -23 -45 -39 -48 -37 -12 13 37 90 68 105 17 9 47 30 64 45 39
33 63 29 93 -16z"/>
<path d="M2519 2784 c-7 -9 -13 -37 -13 -62 -1 -40 2 -47 20 -50 23 -3 84 57
84 83 0 39 -65 60 -91 29z"/>
<path d="M2810 2550 c-17 -11 -15 -14 30 -33 l35 -15 -32 -1 c-40 -1 -83 -17
-83 -31 0 -8 18 -9 55 -5 65 9 71 -3 15 -27 -23 -9 -40 -23 -40 -32 0 -20 14
-20 45 0 13 8 34 14 47 12 21 -3 23 -8 26 -75 2 -40 1 -73 -1 -73 -3 0 -24 7
-48 15 -44 16 -44 16 -194 -37 -131 -46 -145 -53 -112 -56 24 -2 76 11 152 37
97 34 119 39 140 29 34 -16 32 -23 -16 -38 -22 -8 -42 -17 -45 -22 -12 -19 57
-6 140 27 49 19 102 35 118 35 15 0 67 -16 115 -35 77 -31 173 -48 147 -27 -5
5 -59 28 -121 52 -93 36 -120 42 -160 38 -26 -3 -56 -9 -65 -13 -16 -6 -18 0
-18 68 0 67 2 76 20 82 13 4 31 -1 49 -14 59 -42 70 -19 14 29 l-38 32 47 -6
c28 -4 49 -3 53 4 9 15 -45 32 -87 27 -21 -3 -38 -3 -38 -1 0 2 18 13 40 24
23 12 38 25 35 30 -9 14 -55 1 -91 -25 -25 -19 -32 -21 -40 -9 -14 21 -78 44
-94 34z"/>
<path d="M1820 2490 c-11 -20 -6 -40 9 -40 8 0 11 8 20 45 5 19 -18 16 -29 -5z"/>
<path d="M3964 2498 c3 -7 9 -21 12 -30 7 -19 20 -23 27 -10 9 14 -12 52 -29
52 -9 0 -13 -5 -10 -12z"/>
<path d="M1872 2488 c-17 -21 -18 -52 -2 -55 13 -3 40 37 40 59 0 13 -26 9
-38 -4z"/>
<path d="M3900 2491 c0 -5 7 -14 15 -21 8 -7 15 -19 15 -27 0 -8 7 -13 18 -11
18 4 18 33 0 56 -12 14 -48 17 -48 3z"/>
<path d="M3945 2404 c-15 -11 -17 -18 -9 -32 20 -30 42 -27 40 7 -2 38 -7 42
-31 25z"/>
<path d="M1840 2380 c0 -36 24 -41 41 -9 9 17 8 23 -2 30 -26 16 -39 9 -39
-21z"/>
<path d="M1910 2199 c0 -6 18 -33 41 -60 l41 -49 -42 -46 c-23 -25 -40 -50
-37 -57 2 -9 51 -13 165 -15 l162 -2 0 101 0 101 30 11 c17 6 30 15 30 19 0 4
-88 8 -195 8 -136 0 -195 -3 -195 -11z"/>
<path d="M3520 2200 c0 -5 8 -10 18 -10 35 0 42 -21 42 -122 l0 -98 162 2
c104 2 163 7 165 14 2 6 -15 32 -37 57 l-42 47 20 27 c11 16 29 37 41 47 47
42 34 46 -174 46 -123 0 -195 -4 -195 -10z"/>
<path d="M2264 2147 c-2 -7 -3 -69 -2 -138 l3 -124 645 0 645 0 0 135 0 135
-643 3 c-523 2 -644 0 -648 -11z m116 -62 c0 -8 -4 -15 -10 -15 -5 0 -10 -4
-10 -10 0 -5 7 -7 15 -4 8 4 15 15 15 25 0 10 5 19 10 19 6 0 10 -12 10 -26 0
-19 4 -25 15 -20 8 3 15 1 15 -4 0 -5 -22 -9 -50 -8 -48 0 -50 1 -50 29 0 22
5 29 20 29 11 0 20 -7 20 -15z m140 4 c0 -5 -4 -7 -10 -4 -6 4 -10 -5 -10 -19
0 -14 -4 -26 -10 -26 -5 0 -10 12 -10 26 0 14 -4 23 -10 19 -5 -3 -10 -1 -10
4 0 6 14 11 30 11 17 0 30 -5 30 -11z m41 4 c-11 -5 -11 -7 0 -14 10 -6 11 -9
2 -9 -7 0 -13 -4 -13 -9 0 -5 9 -7 21 -4 14 4 19 12 16 24 -6 21 18 27 27 7 5
-10 7 -10 12 0 10 22 24 12 24 -18 0 -31 -19 -43 -21 -12 0 10 -3 12 -6 4 -2
-6 -9 -10 -14 -6 -5 3 -9 2 -9 -3 0 -4 -16 -9 -35 -10 -33 -3 -35 -1 -35 27 0
25 4 30 23 29 12 0 16 -3 8 -6z m149 -6 c0 -13 -39 -55 -41 -46 -1 2 -3 16 -5
32 -2 23 1 27 22 27 13 0 24 -6 24 -13z m30 -12 c0 -27 1 -28 24 -19 9 3 16
15 16 25 0 12 7 19 20 19 11 0 20 -5 20 -11 0 -5 -4 -8 -8 -5 -4 2 -8 -4 -8
-14 0 -10 4 -16 8 -14 4 3 8 1 8 -4 0 -6 -22 -10 -50 -10 -49 -1 -50 0 -50 29
0 16 5 29 10 29 6 0 10 -11 10 -25z m166 10 c8 -20 -13 -45 -37 -45 -14 0 -19
7 -19 30 0 25 4 30 25 30 14 0 28 -7 31 -15z m54 4 c0 -5 -4 -8 -8 -5 -4 2 -8
-4 -9 -14 -1 -13 3 -17 13 -13 8 3 14 14 14 24 0 27 18 24 22 -3 2 -13 9 -22
16 -20 6 1 12 -2 12 -7 0 -6 -22 -10 -50 -9 -48 0 -50 1 -50 29 0 22 5 29 20
29 11 0 20 -5 20 -11z m135 -11 l8 -23 4 23 c3 17 10 22 26 20 13 -2 22 -10
22 -20 0 -29 14 -32 21 -4 8 32 17 33 36 4 14 -21 38 -19 38 3 0 6 -4 7 -10 4
-5 -3 -10 -1 -10 4 0 6 11 11 25 11 25 0 33 -14 15 -25 -15 -9 -12 -25 4 -19
8 3 16 14 19 25 6 21 37 25 55 7 7 -7 8 -17 2 -28 -7 -13 -24 -17 -72 -18 -35
-1 -69 4 -77 11 -11 9 -15 9 -18 0 -3 -7 -13 -13 -24 -13 -10 0 -19 6 -19 13
0 8 -3 8 -8 1 -4 -5 -24 -10 -46 -10 -35 1 -39 4 -42 29 -2 22 1 27 21 27 15
0 25 -8 30 -22z m316 15 c-11 -5 -11 -7 0 -14 10 -6 11 -9 2 -9 -7 0 -13 -3
-13 -7 0 -5 13 -8 29 -8 26 0 28 2 15 16 -16 18 -9 29 18 29 13 0 18 -8 18
-30 0 -29 -1 -30 -50 -30 -49 0 -50 1 -50 30 0 25 4 30 23 29 12 0 16 -3 8 -6z
m-811 -109 c0 -10 6 -8 20 6 12 12 26 18 32 14 6 -4 27 -7 46 -8 30 -1 35 -5
38 -28 3 -28 -10 -38 -19 -15 -4 9 -8 9 -15 -2 -6 -9 -12 -10 -16 -2 -5 7 -12
7 -26 -1 -14 -9 -22 -9 -36 3 -13 11 -18 11 -21 2 -6 -16 -39 -17 -48 -3 -5 8
-11 7 -21 -1 -14 -12 -19 -3 -15 29 3 20 -17 14 -24 -8 -8 -26 -21 -25 -35 1
-15 28 -2 39 16 15 12 -17 14 -18 14 -3 0 11 8 17 25 17 14 0 25 -5 25 -11 0
-6 7 -4 15 5 18 17 45 11 45 -10z m204 7 c-13 -9 -17 -44 -5 -36 6 3 11 1 11
-5 0 -6 -10 -10 -22 -8 -30 4 -39 54 -11 60 22 5 39 -2 27 -11z m304 10 c7 -1
12 -14 12 -32 0 -17 -4 -28 -10 -24 -5 3 -10 15 -10 26 0 25 -18 25 -22 -1 -3
-22 -23 -24 -23 -3 0 6 -4 15 -8 19 -14 14 -7 20 21 18 15 -1 33 -3 40 -3z
m66 -10 c-13 -9 -17 -44 -5 -36 6 3 11 1 11 -5 0 -6 -10 -10 -22 -8 -30 4 -39
54 -11 60 22 5 39 -2 27 -11z m-329 -1 c3 -5 11 -10 16 -10 6 0 7 5 4 10 -3 6
-1 10 4 10 13 0 15 -47 2 -55 -6 -3 -14 3 -20 12 -9 16 -12 16 -21 3 -8 -12
-10 -9 -10 13 0 27 13 36 25 17z m75 -10 c0 -14 7 -20 21 -20 12 0 23 8 26 20
7 25 19 26 33 1 15 -29 13 -46 -4 -32 -10 9 -20 9 -39 0 -14 -6 -33 -9 -41 -6
-17 7 -22 57 -6 57 6 0 10 -9 10 -20z m318 -10 c-1 -24 -4 -28 -15 -19 -9 9
-13 9 -13 0 0 -6 -4 -11 -10 -11 -5 0 -10 14 -10 30 0 25 4 30 24 30 21 0 25
-5 24 -30z m62 10 c0 -11 4 -20 9 -20 5 0 11 9 14 20 7 28 21 25 36 -6 14 -31
8 -42 -13 -25 -9 7 -17 8 -20 2 -7 -10 -25 -9 -43 2 -8 5 -13 4 -13 -2 0 -6
-4 -11 -10 -11 -5 0 -10 14 -10 30 0 25 4 30 25 30 18 0 25 -5 25 -20z"/>
<path d="M2870 2070 c0 -19 3 -21 12 -12 9 9 9 15 0 24 -9 9 -12 7 -12 -12z"/>
<path d="M3310 2076 c0 -8 5 -18 10 -21 6 -3 10 3 10 14 0 12 -4 21 -10 21 -5
0 -10 -6 -10 -14z"/>
<path d="M2565 1981 c-6 -11 9 -23 19 -14 9 9 7 23 -3 23 -6 0 -12 -4 -16 -9z"/>
<path d="M2630 1983 c0 -5 4 -14 9 -21 7 -11 9 -11 14 1 3 8 3 18 0 21 -9 8
-23 7 -23 -1z"/>
<path d="M1447 1560 c-103 -26 -175 -95 -207 -198 -24 -75 -25 -118 -6 -189
18 -67 47 -114 99 -158 112 -96 293 -77 383 40 l23 31 -55 43 -55 43 -27 -27
c-68 -68 -165 -55 -208 27 -22 43 -22 133 0 176 38 74 137 94 195 38 15 -14
31 -26 35 -26 11 0 106 80 106 89 0 16 -68 75 -105 92 -51 22 -129 31 -178 19z"/>
<path d="M2033 1552 c-198 -71 -266 -315 -135 -487 54 -71 129 -108 220 -108
116 0 205 54 260 158 23 44 27 62 27 145 0 79 -4 103 -23 141 -65 132 -217
198 -349 151z m168 -159 c83 -70 78 -211 -10 -270 -139 -93 -277 114 -169 252
42 53 127 62 179 18z"/>
<path d="M4134 1563 c-6 -5 -9 -21 -8 -38 1 -16 3 -42 3 -57 1 -20 7 -27 25
-30 23 -3 22 -5 -60 -223 -46 -121 -84 -226 -84 -233 0 -10 18 -12 72 -10 l72
3 21 53 20 52 106 0 106 0 19 -52 19 -53 69 -3 c38 -2 73 1 77 5 5 5 -43 139
-105 298 l-113 290 -114 3 c-63 1 -119 -1 -125 -5z m197 -270 c12 -38 24 -74
27 -80 3 -10 -11 -13 -51 -13 -31 0 -58 4 -61 8 -6 10 44 152 55 152 4 0 17
-30 30 -67z"/>
<path d="M2517 1554 c-4 -4 -7 -137 -7 -296 l0 -288 205 0 205 0 0 70 0 70
-130 0 -130 0 -2 223 -3 222 -65 3 c-36 2 -69 0 -73 -4z"/>
<path d="M2990 1495 l0 -65 35 0 35 0 0 -230 0 -231 73 3 72 3 0 290 0 290
-107 3 -108 3 0 -66z"/>
<path d="M3334 1547 c-2 -7 -3 -139 -2 -293 l3 -279 72 -3 73 -3 2 168 3 168
44 -75 c25 -41 55 -92 68 -113 l24 -39 67 114 67 113 5 -165 5 -165 73 -3 72
-3 0 296 0 295 -80 0 -79 0 -62 -110 c-34 -60 -64 -110 -68 -110 -3 0 -33 48
-66 108 l-61 107 -77 3 c-58 2 -79 -1 -83 -11z"/>
<path d="M2800 525 c0 -29 25 -67 53 -81 34 -18 42 -14 33 20 -11 43 -86 96
-86 61z"/>
<path d="M2976 499 c-34 -40 -35 -73 -3 -64 29 9 67 51 67 76 0 30 -35 23 -64
-12z"/>
<path d="M2922 490 c0 -19 2 -27 5 -17 2 9 2 25 0 35 -3 9 -5 1 -5 -18z"/>
<path d="M2600 433 c0 -5 14 -22 30 -38 19 -18 33 -43 37 -67 10 -64 64 -93
127 -68 52 19 25 110 -43 148 -39 22 -151 40 -151 25z"/>
<path d="M3138 431 c-69 -14 -128 -74 -128 -133 0 -20 7 -28 31 -37 18 -6 40
-11 49 -11 29 0 68 38 75 73 4 17 20 48 35 68 39 50 28 57 -62 40z"/>
<path d="M1401 326 c-26 -31 19 -68 49 -41 14 13 88 15 569 15 368 0 550 3
546 10 -4 7 -198 10 -558 10 -374 -1 -553 3 -555 10 -5 15 -38 12 -51 -4z m43
-11 c3 -9 -1 -18 -10 -22 -19 -7 -28 2 -21 22 8 19 23 19 31 0z"/>
<path d="M4368 330 c-2 -7 -186 -10 -545 -10 -344 0 -544 -4 -548 -10 -4 -7
184 -10 536 -10 472 0 545 -2 559 -15 30 -27 75 10 49 41 -13 16 -46 19 -51 4z
m40 -23 c2 -10 -3 -17 -12 -17 -18 0 -29 16 -21 31 9 14 29 6 33 -14z"/>
</g>
</svg>
